<svg id="svg" xmlns="http://www.w3.org/2000/svg" viewBox="0 0 195.2 150.9"><style>.st0{fill:#d7e9ff}.st1{fill:none;stroke:#d7e9ff;stroke-miterlimit:10}.st1,.st2,.st3,.st4{stroke-width:1.6;stroke-linecap:round}.st2{fill:none;stroke-linejoin:round;stroke:#d7e9ff}.st3,.st4{stroke:#8fbeff}.st3{fill:#fff;stroke-linejoin:round}.st4{stroke-miterlimit:10}.st4,.st5{fill:#fff}.st6,.st7{stroke-linecap:round}.st6{stroke-linejoin:round;fill:none;stroke:#8fbeff;stroke-width:1.6}.st7{fill:#fff;stroke:#0069ff;stroke-width:2}.st10,.st7,.st8,.st9{stroke-linejoin:round}.st8{fill:#d7e9ff;stroke-linecap:round;stroke:#d7e9ff;stroke-width:1.6}.st10,.st9{stroke:#0069ff;stroke-width:2}.st9{stroke-linecap:round;fill:none}.st10{fill:#8fbeff}.st11{fill:#4894ff}.st12{fill:#d7e9ff;stroke:#0069ff;stroke-width:2;stroke-linejoin:round}.st13{fill:none;stroke:#4894ff;stroke-width:1.6}.st13,.st14,.st15{stroke-linejoin:round}.st14{stroke-linecap:round;fill:#d7e9ff;stroke:#4894ff;stroke-width:1.6}.st15{fill:none;stroke:#0069ff;stroke-width:2}.st16{fill:none;stroke:#fff;stroke-linecap:round;stroke-miterlimit:10}</style><path class="st0" d="M89.5.8h4.9v16.1h-4.9z"/><path class="st1" d="M89.5 6.3h16.3"/><path class="st2" d="M89.5.8h16.3v16.1H89.5z"/><path class="st3" d="M66.1 21.4h63.5v52.7H66.1z"/><path class="st4" d="M71.1 26.1h53.7V52H71.1z"/><path class="st3" d="M63.8 16.9h67.6v4.4H63.8zM44.2 45.6h107.2v6.6H44.2z"/><path class="st5" d="M46.5 52.2h102.8v48.1H46.5z"/><path class="st6" d="M46.5 52.2h102.8v48.1H46.5z"/><path class="st7" d="M91.3 66.7V52c0-1.6 1.2-3 2.8-3.2 2.5-.5 5-.8 7.5-.9 2.9.1 5.7.4 8.5 1 1.6.3 2.8 1.6 3 3.3v15.1"/><path class="st8" d="M99.6 48.5l2.6 3.7 2.6-3.8"/><path class="st1" d="M106 55.3h2.2M102.2 52.2v10.7"/><path class="st9" d="M91.3 66.7V52c0-1.6 1.2-3 2.8-3.2 2.5-.5 5-.8 7.5-.9 2.9.1 5.7.4 8.5 1 1.6.3 2.8 1.6 3 3.3v15.1"/><path class="st7" d="M108.5 40c0 3.7-2 8.6-6.5 8.6s-6-4.9-6.1-8.6h12.6z"/><path class="st9" d="M95.1 40h14.2"/><path class="st7" d="M95.9 34.3h12.6V40H95.9z"/><ellipse transform="rotate(-8.048 101.98 33.669)" class="st7" cx="102" cy="33.7" rx="8.2" ry="2.4"/><path class="st7" d="M110.7 70.6V55.9c0-1.6 1.2-3 2.8-3.2 2.5-.5 5-.8 7.5-.9 2.9.1 5.7.4 8.5 1 1.6.3 2.4 1.8 3.1 3l2.6 4.9 4.4-3.8 2.3 2.9-7.5 6.8-4.6-3.1v12.8"/><path class="st1" d="M121.7 56.1v6.6"/><path class="st8" d="M119.1 52.4l2.6 3.7 2.6-3.8"/><path class="st7" d="M128 44.1c.1 3.7-2 8.9-6.5 8.9-4.4 0-6.1-5.2-6.1-8.9H128zM139.5 56.9s.7-.7 2-1.7c2.2-1.8 4.5.9 2.7 2.5l-2.3 2.1-2.4-2.9zM128 37.2l-12.6 2v4.9H128z"/><path class="st9" d="M129.8 60.7v15.6"/><path class="st7" d="M72.5 69.4V54.6c0-1.6 1.2-3 2.8-3.2 2.5-.5 5-.8 7.5-.9 2.9.1 5.7.4 8.5 1 1.6.3 2.8 1.6 3 3.3v17.4"/><path class="st1" d="M87.7 57.9h2.2M83.6 55.9v10.7"/><path class="st8" d="M81 52.2l2.6 3.7 2.6-3.9"/><path class="st7" d="M89.7 44.1c0 3.7-1.9 8.6-6.5 8.6s-6.1-4.9-6.1-8.6h12.6zM89.7 38.7l-12.6-2.5v7.9h12.6zM79 78.7V63.6c-.1-1.6-1.3-3-3-3.3-2.8-.6-5.6-.9-8.5-1-2.5.1-5.1.4-7.5.9-1.6.3-2.8 1.9-3.9 3.5l-4.9 7.4 3.9 7.4"/><path class="st1" d="M67.9 63.7v10.7"/><path class="st8" d="M65.3 60l2.6 3.7 2.6-3.9"/><path class="st7" d="M74.2 51.9c0 3.7-1.9 8.6-6.5 8.6s-6.1-4.9-6.1-8.6h12.6zM62.5 48.4s1.7-4.3 5.4-4.3 5.6 4.3 5.6 4.3M61.6 48.9h12.6v3H61.6z"/><path class="st9" d="M59.7 68.2l-2.4 3 2.4 4.6"/><path class="st10" d="M97.9 61c-1.9-.1-3.8 0-5.8.2-5.3.9-10.3 2.8-14.8 5.8-3.1 1.9-39.6 23.5-39.6 23.5s-1.3 4.1 0 12.9c3.5 24.4 28.8 31.7 42.2 35 14.1 3.5 18 11.5 18 11.5V61z"/><path class="st11" d="M47.3 84.8l-9.6 5.7s-1.3 4.1 0 12.9c3.5 24.4 28.8 31.7 42.2 35 14.1 3.5 18 11.5 18 11.5-.9-4.7-3.4-8.8-7.2-11.7-17.1-12.2-43.6-16.1-43.4-53.4z"/><path class="st12" d="M97.9 61s4 .2 5.8.3c1.2.1 7.3.9 14.8 5.6 3.1 1.9 39.6 23.5 39.6 23.5s1.3 4.1 0 12.9c-3.5 24.4-28.8 31.7-42.2 35-14.1 3.5-18 11.5-18 11.5V61z"/><path class="st13" d="M97.9 70.7c-1.9-.1-3.8 0-5.8.2-5.3.9-10.3 2.8-14.8 5.8-3.1 1.9-39.6 23.5-39.6 23.5M97.9 70.7c1.9-.1 3.8 0 5.8.2 5.3.9 10.3 2.8 14.8 5.8 3.1 1.9 39.6 23.5 39.6 23.5"/><circle class="st14" cx="78.3" cy="92.7" r="8.5"/><circle class="st14" cx="117.2" cy="92.7" r="8.5"/><path class="st15" d="M97.9 61c-1.9-.1-3.8 0-5.8.2-5.3.9-10.3 2.8-14.8 5.8-3.1 1.9-39.6 23.5-39.6 23.5s-1.3 4.1 0 12.9c3.5 24.4 28.8 31.7 42.2 35 14.1 3.5 18 11.5 18 11.5V61z"/><path class="st15" d="M97.9 61s4 .2 5.8.3c1.2.1 7.3.9 14.8 5.6 3.1 1.9 39.6 23.5 39.6 23.5s1.3 4.1 0 12.9c-3.5 24.4-28.8 31.7-42.2 35-14.1 3.5-18 11.5-18 11.5V61z"/><path class="st5" d="M194.2 123.5s-6.8 6-14 6-13.6-6-13.6-6-6.8 6-14.1 6-13.6-6-13.6-6-6.8 6-14 6-13.6-6-13.6-6-6.8 6-14 6-13.6-6-13.6-6-6.8 6-14 6-13.6-6-13.6-6-6.8 6-14 6-13.6-6-13.6-6-6.8 6-14 6-13.6-6-13.6-6v27.4h193.2l.1-27.4z"/><path class="st9" d="M1 123.3s6.3 6 13.6 6 14-6 14-6 6.3 6 13.6 6 14-6 14-6 6.3 6 13.6 6c7.2 0 14-6 14-6s6.3 6 13.6 6 14-6 14-6 6.3 6 13.6 6c7.2 0 14-6 14-6s6.3 6 13.6 6c7.2 0 14-6 14-6s6.3 6 13.6 6c7.2 0 14-6 14-6"/><path class="st16" d="M123 93.3l-4.6 4.5M122.3 90.3l-6.9 6.4M83.8 93.9l-4.5 4.5M83.1 90.9l-6.8 6.5"/><path class="st2" d="M111.4 135.5s6.3 6 13.6 6c7.2 0 14-6 14-6s6.3 6 13.6 6c7.2 0 14-6 14-6M14.6 141.6c7.2 0 14-6 14-6s6.3 6 13.6 6"/></svg>